<svg xmlns="http://www.w3.org/2000/svg" viewBox="0 0 24 24" id="heroku"><path fill="#430097" d="M1.25 21.841c0 1.198.957 2.159 2.156 2.159h17.189a2.148 2.148 0 0 0 2.155-2.159V2.16A2.147 2.147 0 0 0 20.595 0H3.406C2.207 0 1.25.96 1.25 2.16v19.681zM2.448 2.16c0-.54.419-.961.958-.961h17.189c.538 0 .958.421.958.961v19.681c0 .539-.42.96-.958.96H3.406a.947.947 0 0 1-.958-.96V2.16z"></path><path fill="#430097" d="M13.409 11.94c1.198 0 1.497.66 1.497 1.26v7.2h2.396v-7.2c.059-.179.059-1.501-.959-2.52-.478-.48-1.377-1.08-2.874-1.08-1.618 0-3.295.421-4.492.84V3.6H6.581v10.38l1.677-.78s2.755-1.26 5.151-1.26zm3.952-8.34h-2.395c-.241 1.379-.839 2.64-1.798 3.9h2.396c1.078-1.26 1.617-2.521 1.797-3.9zM6.64 20.399 9.335 18 6.64 15.6z"></path></svg>